<svg xmlns="http://www.w3.org/2000/svg" width="100.436mm" height="30.63mm" viewBox="-10 -10 294.7 96.826">
  <title>アセット 1</title>
  <g id="レイヤー_2" data-name="レイヤー 2">
    <g id="logo">
      <g>
        <g>
          <rect x="73.768" y="63.359" width="34.89" height="10.667" rx="0.709" fill="#000"/>
          <path d="M107.949,76.322H74.319l8.324,8.324a.708.708,0,0,0,.5.207h24.8a.708.708,0,0,0,.708-.708V77.03A.708.708,0,0,0,107.949,76.322Z" fill="#000"/>
          <path d="M107.949,48.427H75.185a1.418,1.418,0,0,0-1.417,1.417V60.519a.709.709,0,0,0,.709.709h33.473a.708.708,0,0,0,.708-.708V49.136A.708.708,0,0,0,107.949,48.427Z" fill="#000"/>
          <path d="M169.252,48.427a1.423,1.423,0,0,0-1,.415l-17.7,17.7a.707.707,0,0,0-.208.5v16.1a.709.709,0,0,0,1.21.5l12.739-12.739V84.859h8.531V62.375l13.949-13.948Z" fill="#000"/>
          <path d="M147.106,63.359H111.891a.709.709,0,0,0-.709.709v9.25a.709.709,0,0,0,.709.709h22.416a.708.708,0,0,1,.708.708V86.826l12.592-12.592a.709.709,0,0,0,.208-.5V64.068A.71.71,0,0,0,147.106,63.359Z" fill="#000"/>
          <path d="M147.106,48.427H112.6a1.418,1.418,0,0,0-1.418,1.418V60.52a.709.709,0,0,0,.709.708h35.215a.709.709,0,0,0,.709-.708V49.136A.709.709,0,0,0,147.106,48.427Z" fill="#000"/>
        </g>
        <g>
          <path d="M230.933,48.429h-21.7a1.417,1.417,0,0,0-1.417,1.417v34.3a.709.709,0,0,0,.708.709h22.414a.709.709,0,0,0,.709-.709V49.138A.708.708,0,0,0,230.933,48.429Zm-7.825,27.9h-6.765V61.23h6.765Z" fill="#000"/>
          <path d="M204.577,73.043a.708.708,0,0,0,.709-.708v-23.2a.708.708,0,0,0-.709-.709H194.5a1.418,1.418,0,0,0-1,.415L182.319,60.018a.708.708,0,0,0,.5,1.21h12.51V64.51H181.818a.708.708,0,0,0-.709.709V84.15a.709.709,0,0,0,.709.709h22.759a.71.71,0,0,0,.709-.709V77.034a.708.708,0,0,0-.709-.709H191.064V73.043Z" fill="#000"/>
          <path d="M283.991,48.429h-21.7a1.417,1.417,0,0,0-1.417,1.417v34.3a.709.709,0,0,0,.709.709h22.413a.709.709,0,0,0,.709-.709V49.138A.708.708,0,0,0,283.991,48.429Zm-7.825,27.9H269.4V61.23h6.765Z" fill="#000"/>
          <path d="M257.635,73.043a.708.708,0,0,0,.709-.708v-23.2a.708.708,0,0,0-.709-.709H234.876a.708.708,0,0,0-.709.709V60.52a.708.708,0,0,0,.709.708h13.513V64.51H234.876a.708.708,0,0,0-.709.709V84.15a.709.709,0,0,0,.709.709h22.759a.709.709,0,0,0,.709-.709V77.034a.708.708,0,0,0-.709-.709H244.122V73.043Z" fill="#000"/>
        </g>
        <g>
          <rect x="166.928" y="0.001" width="10.665" height="34.133" rx="0.709" fill="#000"/>
          <g>
            <path d="M91.385,11.084a1.416,1.416,0,0,0,.415-1V1.418A1.416,1.416,0,0,0,90.383,0H1.42a1.417,1.417,0,0,0-1,2.419L23.183,25.186a1.423,1.423,0,0,0,1,.415H67.627a.708.708,0,0,1,.708.708v7.825Z" fill="#000"/>
            <path d="M56.739,34.55a1.416,1.416,0,0,0-1-.415H32.132L55.265,57.267a1.418,1.418,0,0,0,2,0L67.36,47.176a1.417,1.417,0,0,0,0-2.005Z" fill="#000"/>
          </g>
          <path d="M191.1,10.668a.709.709,0,0,1-.708-.709V.709A.709.709,0,0,0,189.685,0h-9.248a.71.71,0,0,0-.709.709V33.424a.709.709,0,0,0,1.21.5L204.2,10.669Z" fill="#000"/>
          <path d="M163.694,0H132.4a1.417,1.417,0,0,0-1.418,1.417V9.959a.71.71,0,0,0,.709.709h4.11a.708.708,0,0,1,.709.708V33.425a.709.709,0,0,0,.709.709h9.413a.708.708,0,0,0,.708-.709V11.376a.708.708,0,0,1,.709-.708h7.114a.708.708,0,0,1,.708.708V33.425a.709.709,0,0,0,.709.709h7.114a.708.708,0,0,0,.709-.709V.709A.708.708,0,0,0,163.694,0Z" fill="#000"/>
          <g>
            <path d="M95.034,10.669h19.915a.708.708,0,0,0,.709-.709V.709A.708.708,0,0,0,114.949,0H95.743a1.418,1.418,0,0,0-1.418,1.417V9.96A.709.709,0,0,0,95.034,10.669Z" fill="#000"/>
            <rect x="94.325" y="12.8" width="21.333" height="10.667" rx="0.709" fill="#000"/>
            <path d="M118.564,34.135a.71.71,0,0,0,.5-.207l9.185-9.185a.708.708,0,0,0,.207-.5V13.509a.708.708,0,0,0-.708-.708H118.5a.708.708,0,0,0-.709.708V24.893a.708.708,0,0,1-.709.709H94.913a1.418,1.418,0,0,0-1,.415l-8.118,8.118Z" fill="#000"/>
          </g>
          <rect x="117.792" width="10.669" height="4.269" rx="0.709" fill="#000"/>
          <rect x="117.792" y="6.4" width="10.669" height="4.269" rx="0.709" fill="#000"/>
        </g>
        <g>
          <polygon points="141.946 38.104 140.092 41.314 138.239 38.104 137.18 38.104 137.18 44.459 138.239 44.459 138.239 40.223 140.092 43.433 141.946 40.223 141.946 44.459 143.005 44.459 143.005 38.104 141.946 38.104" fill="#000"/>
          <rect x="147.104" y="38.104" width="1.059" height="6.355" fill="#000"/>
          <path d="M164.284,38.1v5.3h-2.515V38.1H160.71v5.3a1.059,1.059,0,0,0,1.059,1.059h2.515a1.059,1.059,0,0,0,1.059-1.059V38.1Z" fill="#000"/>
          <g>
            <rect x="152.261" y="38.104" width="1.059" height="6.355" fill="#000"/>
            <polygon points="156.894 38.103 155.671 38.103 153.837 41.28 153.837 41.28 155.671 44.456 156.894 44.456 155.06 41.28 156.894 38.103" fill="#000"/>
          </g>
        </g>
        <g>
          <polygon points="118.997 38.103 118.997 42.612 115.84 38.103 114.781 38.103 114.781 44.458 115.84 44.458 115.84 39.95 118.997 44.458 120.056 44.458 120.056 38.103 118.997 38.103" fill="#000"/>
          <polygon points="77.341 38.103 77.341 40.751 74.827 40.751 74.827 38.103 73.767 38.103 73.767 44.458 74.827 44.458 74.827 41.811 77.341 41.811 77.341 44.458 78.401 44.458 78.401 38.103 77.341 38.103" fill="#000"/>
          <polygon points="128.506 39.163 128.506 38.103 123.872 38.103 123.872 44.458 128.506 44.458 128.506 43.399 124.932 43.399 124.932 41.811 128.506 41.811 128.506 40.751 124.932 40.751 124.932 39.163 128.506 39.163" fill="#000"/>
          <path d="M109.906,38.1v5.3h-2.515V38.1h-1.059v5.3a1.059,1.059,0,0,0,1.059,1.059h2.515a1.059,1.059,0,0,0,1.059-1.059V38.1Z" fill="#000"/>
          <polygon points="94.629 38.103 89.997 38.103 89.997 39.163 91.783 39.163 91.783 44.458 92.843 44.458 92.843 39.163 94.629 39.163 94.629 38.103" fill="#000"/>
          <path d="M98.943,40.26v-1.1h3.432V38.1H98.943a1.061,1.061,0,0,0-1.06,1.06v1.1a1.059,1.059,0,0,0,.7,1l2.877,1.047v1.1H98.025v1.059h3.432a1.059,1.059,0,0,0,1.059-1.059V42.3a1.059,1.059,0,0,0-.7-.995Z" fill="#000"/>
          <polygon points="85.375 38.103 84.247 38.103 81.934 44.459 83.061 44.459 84.811 39.652 86.561 44.459 87.688 44.459 85.375 38.103" fill="#000"/>
        </g>
        <g>
          <polygon points="192.575 38.103 190.721 41.314 188.868 38.103 187.809 38.103 187.809 44.458 188.868 44.458 188.868 40.222 190.721 43.432 192.575 40.222 192.575 44.458 193.634 44.458 193.634 38.103 192.575 38.103" fill="#000"/>
          <rect x="215.187" y="38.104" width="1.059" height="6.355" fill="#000"/>
          <path d="M207.514,43.4V39.163h3.574V38.1h-3.574a1.059,1.059,0,0,0-1.059,1.059v5.3h4.633V40.752h-2.316v1.059h1.257V43.4Z" fill="#000"/>
          <path d="M221.4,43.4V39.163h3.574V38.1H221.4a1.06,1.06,0,0,0-1.06,1.059v5.3h4.634V43.4Z" fill="#000"/>
          <polygon points="238.858 43.4 238.858 38.104 237.798 38.104 237.798 44.459 242.432 44.459 242.432 43.4 238.858 43.4" fill="#000"/>
          <polygon points="200.608 38.103 199.481 38.103 197.168 44.459 198.295 44.459 200.045 39.652 201.794 44.459 202.921 44.459 200.608 38.103" fill="#000"/>
          <polygon points="231.952 38.103 230.824 38.103 228.511 44.459 229.638 44.459 231.388 39.652 233.138 44.459 234.265 44.459 231.952 38.103" fill="#000"/>
        </g>
        <g>
          <polygon points="255.872 38.104 254.018 41.314 252.165 38.104 251.106 38.104 251.106 44.459 252.165 44.459 252.165 40.223 254.018 43.433 255.872 40.223 255.872 44.459 256.931 44.459 256.931 38.104 255.872 38.104" fill="#000"/>
          <rect x="261.03" y="38.104" width="1.059" height="6.355" fill="#000"/>
          <rect x="283.641" y="38.104" width="1.059" height="6.355" fill="#000"/>
          <polygon points="277.794 38.103 276.667 38.103 274.353 44.459 275.481 44.459 277.23 39.652 278.98 44.459 280.107 44.459 277.794 38.103" fill="#000"/>
          <polygon points="270.82 38.104 266.187 38.104 266.188 38.104 266.187 38.104 266.187 44.459 267.247 44.459 267.247 39.163 269.761 39.163 269.761 40.342 268.094 41.119 269.651 44.459 270.82 44.459 269.501 41.631 270.82 41.016 270.82 38.104" fill="#000"/>
        </g>
        <g>
          <path d="M176.576,38.673c-.879,0-1.171.386-1.086.723a9.083,9.083,0,0,0,1.086,1.694,9.134,9.134,0,0,0,1.086-1.694C177.747,39.059,177.455,38.673,176.576,38.673Z" fill="#000"/>
          <path d="M176.576,43.79c.879,0,1.171-.386,1.086-.723a9.134,9.134,0,0,0-1.086-1.694,9.083,9.083,0,0,0-1.086,1.694C175.405,43.4,175.7,43.79,176.576,43.79Z" fill="#000"/>
          <path d="M179.135,41.231c0-.878-.387-1.171-.724-1.086a9.173,9.173,0,0,0-1.693,1.086,9.116,9.116,0,0,0,1.693,1.087C178.748,42.4,179.135,42.11,179.135,41.231Z" fill="#000"/>
          <path d="M174.017,41.231c0,.879.386,1.172.723,1.087a9.13,9.13,0,0,0,1.694-1.087,9.187,9.187,0,0,0-1.694-1.086C174.4,40.06,174.017,40.353,174.017,41.231Z" fill="#000"/>
        </g>
      </g>
    </g>
  </g>
</svg>
